<?xml version="1.0" encoding="UTF-8" standalone="no"?>
<!DOCTYPE svg PUBLIC "-//W3C//DTD SVG 1.1//EN" "http://www.w3.org/Graphics/SVG/1.1/DTD/svg11.dtd">
<svg width="100%" height="100%" viewBox="0 0 32 27" version="1.1" xmlns="http://www.w3.org/2000/svg" xmlns:xlink="http://www.w3.org/1999/xlink" xml:space="preserve" xmlns:serif="http://www.serif.com/" style="fill-rule:evenodd;clip-rule:evenodd;stroke-linejoin:round;stroke-miterlimit:1.41421;">
    <g id="High-Voltage" serif:id="High Voltage" transform="matrix(1,0,0,1,0.033198,0.662885)">
        <g id="path609" transform="matrix(0.0451078,0,0,0.0451587,0.0360631,0.0799309)">
            <path d="M353.17,94.272L597.03,515.01L109.31,515.01L353.17,94.272Z" style="fill:rgb(197,179,23);"/>
            <path d="M356.067,50.078L358.951,50.361L361.81,50.832L364.633,51.489L367.406,52.328L370.119,53.347L372.759,54.54L375.316,55.904L377.778,57.431L380.135,59.115L382.377,60.95L384.494,62.927L386.477,65.038L388.318,67.274L390.008,69.625L391.541,72.082L635.401,492.82L636.773,495.376L637.974,498.016L639,500.729L639.845,503.503L640.507,506.326L640.983,509.187L641.271,512.072L641.368,514.97L641.276,517.869L640.994,520.755L640.523,523.616L639.866,526.441L639.025,529.216L638.005,531.931L636.808,534.573L635.441,537.131L633.91,539.595L632.22,541.953L630.379,544.195L628.396,546.312L626.278,548.296L624.035,550.136L621.675,551.826L619.211,553.358L616.651,554.726L614.007,555.923L611.29,556.945L608.512,557.787L605.685,558.446L602.821,558.919L599.932,559.203L597.03,559.298L109.31,559.298L106.408,559.203L103.519,558.919L100.655,558.446L97.828,557.787L95.05,556.945L92.333,555.923L89.689,554.726L87.129,553.358L84.665,551.826L82.305,550.136L80.062,548.296L77.944,546.312L75.961,544.195L74.12,541.953L72.43,539.595L70.899,537.131L69.532,534.573L68.335,531.931L67.315,529.216L66.474,526.441L65.817,523.616L65.346,520.755L65.064,517.869L64.972,514.97L65.069,512.072L65.357,509.187L65.833,506.326L66.495,503.503L67.34,500.729L68.366,498.016L69.567,495.376L70.939,492.82L314.799,72.082L316.332,69.625L318.022,67.274L319.863,65.038L321.846,62.927L323.963,60.95L326.205,59.115L328.562,57.431L331.024,55.904L333.581,54.54L336.221,53.347L338.934,52.328L341.707,51.489L344.53,50.832L347.389,50.361L350.273,50.078L353.17,49.983L356.067,50.078ZM109.31,515.01L597.03,515.01L353.17,94.272L109.31,515.01Z"/>
        </g>
        <g id="path615" transform="matrix(0.0454378,0,0,0.0451587,0,0)">
            <path d="M331.93,194.79L373.27,193.61L290.59,349.52L405.16,314.09L341.789,450.149L367.36,444.01L326.02,492.44L325,486.195L324.84,486.54L324.975,486.039L316.57,434.56L334.969,448.874L362.64,345.98L255.15,382.59L331.93,194.79Z"/>
        </g>
    </g>
</svg>
